<svg xmlns="http://www.w3.org/2000/svg" viewBox="0 0 100 100" fill="currentColor" fill-rule="evenodd">
  <!--
    Outer silhouette: tail sweeps upper-left, body sits lower-right, two ears top-right.
    Inner path cuts out the gap between the tail curl and the body (evenodd rule).
  -->
  <path d="
    M 24,8
    C 18,6 10,14 8,26
    C 6,38 10,52 16,64
    C 12,68 10,76 14,82
    C 18,86 26,86 30,82
    C 36,86 44,90 52,90
    C 54,94 58,90 58,86
    C 64,88 72,88 78,84
    C 84,80 84,72 80,64
    C 84,54 86,42 84,32
    C 82,22 76,14 68,10
    C 72,6 74,0 70,0
    L 64,4
    C 62,6 62,10 64,12
    C 60,8 56,6 54,10
    L 54,14
    C 52,18 48,20 44,18
    C 38,16 30,12 24,8
    Z
  "/>
  <path d="
    M 44,20
    C 38,36 36,54 42,68
    C 36,70 24,72 16,66
    C 10,60 10,48 14,38
    C 18,28 24,20 32,16
    C 36,14 42,16 44,20
    Z
  "/>
</svg>
